<svg width="177" height="12" viewBox="0 0 177 12" fill="none" xmlns="http://www.w3.org/2000/svg">
<path opacity="0.5" d="M6.18 6.722C6.212 6.702 6.238 6.686 6.258 6.674C6.282 6.658 6.306 6.65 6.33 6.65C6.374 6.65 6.404 6.656 6.42 6.668C6.436 6.68 6.456 6.698 6.48 6.722L6.846 7.106C6.618 7.37 6.338 7.576 6.006 7.724C5.674 7.868 5.276 7.94 4.812 7.94C4.42 7.94 4.062 7.872 3.738 7.736C3.418 7.6 3.142 7.41 2.91 7.166C2.682 6.922 2.504 6.632 2.376 6.296C2.252 5.96 2.19 5.592 2.19 5.192C2.19 4.788 2.258 4.418 2.394 4.082C2.534 3.742 2.726 3.452 2.97 3.212C3.214 2.968 3.502 2.78 3.834 2.648C4.17 2.512 4.534 2.444 4.926 2.444C5.358 2.444 5.726 2.512 6.03 2.648C6.334 2.784 6.6 2.962 6.828 3.182L6.552 3.572C6.532 3.596 6.506 3.62 6.474 3.644C6.442 3.668 6.402 3.68 6.354 3.68C6.298 3.68 6.238 3.658 6.174 3.614C6.114 3.57 6.034 3.522 5.934 3.47C5.834 3.414 5.708 3.364 5.556 3.32C5.404 3.272 5.21 3.248 4.974 3.248C4.694 3.248 4.44 3.294 4.212 3.386C3.988 3.474 3.796 3.602 3.636 3.77C3.48 3.938 3.358 4.142 3.27 4.382C3.186 4.622 3.144 4.892 3.144 5.192C3.144 5.5 3.186 5.776 3.27 6.02C3.358 6.26 3.478 6.462 3.63 6.626C3.782 6.79 3.964 6.916 4.176 7.004C4.388 7.088 4.618 7.13 4.866 7.13C5.058 7.13 5.22 7.118 5.352 7.094C5.484 7.07 5.598 7.038 5.694 6.998C5.79 6.958 5.874 6.914 5.946 6.866C6.022 6.818 6.1 6.77 6.18 6.722ZM0.408 5.204C0.408 4.8 0.46 4.412 0.564 4.04C0.668 3.664 0.814 3.314 1.002 2.99C1.194 2.662 1.424 2.366 1.692 2.102C1.96 1.834 2.256 1.604 2.58 1.412C2.904 1.22 3.252 1.072 3.624 0.968C3.996 0.864 4.384 0.812 4.788 0.812C5.192 0.812 5.58 0.864 5.952 0.968C6.328 1.072 6.678 1.22 7.002 1.412C7.326 1.604 7.622 1.834 7.89 2.102C8.158 2.366 8.386 2.662 8.574 2.99C8.766 3.314 8.914 3.664 9.018 4.04C9.122 4.412 9.174 4.8 9.174 5.204C9.174 5.604 9.122 5.992 9.018 6.368C8.914 6.74 8.766 7.088 8.574 7.412C8.386 7.736 8.158 8.032 7.89 8.3C7.622 8.564 7.326 8.792 7.002 8.984C6.678 9.176 6.328 9.324 5.952 9.428C5.58 9.532 5.192 9.584 4.788 9.584C4.384 9.584 3.996 9.532 3.624 9.428C3.252 9.324 2.904 9.176 2.58 8.984C2.256 8.792 1.96 8.564 1.692 8.3C1.424 8.032 1.194 7.736 1.002 7.412C0.814 7.088 0.668 6.74 0.564 6.368C0.46 5.996 0.408 5.608 0.408 5.204ZM1.008 5.204C1.008 5.56 1.052 5.902 1.14 6.23C1.228 6.558 1.354 6.866 1.518 7.154C1.682 7.438 1.878 7.696 2.106 7.928C2.334 8.16 2.588 8.36 2.868 8.528C3.148 8.692 3.45 8.82 3.774 8.912C4.098 9 4.436 9.044 4.788 9.044C5.316 9.044 5.81 8.944 6.27 8.744C6.734 8.544 7.136 8.272 7.476 7.928C7.82 7.58 8.09 7.174 8.286 6.71C8.486 6.242 8.586 5.74 8.586 5.204C8.586 4.848 8.54 4.504 8.448 4.172C8.36 3.84 8.234 3.532 8.07 3.248C7.906 2.96 7.708 2.698 7.476 2.462C7.248 2.226 6.994 2.026 6.714 1.862C6.434 1.694 6.13 1.564 5.802 1.472C5.478 1.38 5.14 1.334 4.788 1.334C4.26 1.334 3.766 1.436 3.306 1.64C2.846 1.84 2.446 2.116 2.106 2.468C1.766 2.816 1.498 3.226 1.302 3.698C1.106 4.166 1.008 4.668 1.008 5.204ZM15.5005 0.805999C15.8645 0.805999 16.2045 0.859999 16.5205 0.968C16.8365 1.076 17.1085 1.234 17.3365 1.442C17.5685 1.646 17.7505 1.896 17.8825 2.192C18.0145 2.488 18.0805 2.824 18.0805 3.2C18.0805 3.52 18.0325 3.816 17.9365 4.088C17.8405 4.36 17.7105 4.622 17.5465 4.874C17.3825 5.122 17.1925 5.364 16.9765 5.6C16.7645 5.832 16.5385 6.07 16.2985 6.314L14.0365 8.63C14.1965 8.586 14.3585 8.552 14.5225 8.528C14.6865 8.5 14.8445 8.486 14.9965 8.486H17.8765C17.9925 8.486 18.0845 8.52 18.1525 8.588C18.2205 8.656 18.2545 8.744 18.2545 8.852V9.5H12.5185V9.134C12.5185 9.058 12.5325 8.98 12.5605 8.9C12.5925 8.82 12.6425 8.746 12.7105 8.678L15.4645 5.912C15.6925 5.68 15.9005 5.458 16.0885 5.246C16.2765 5.03 16.4365 4.814 16.5685 4.598C16.7045 4.382 16.8085 4.164 16.8805 3.944C16.9525 3.72 16.9885 3.482 16.9885 3.23C16.9885 2.978 16.9485 2.758 16.8685 2.57C16.7885 2.378 16.6785 2.22 16.5385 2.096C16.3985 1.972 16.2345 1.88 16.0465 1.82C15.8585 1.756 15.6565 1.724 15.4405 1.724C15.2245 1.724 15.0245 1.756 14.8405 1.82C14.6565 1.884 14.4925 1.974 14.3485 2.09C14.2085 2.202 14.0885 2.336 13.9885 2.492C13.8925 2.648 13.8245 2.82 13.7845 3.008C13.7525 3.124 13.7045 3.208 13.6405 3.26C13.5765 3.312 13.4925 3.338 13.3885 3.338C13.3685 3.338 13.3465 3.338 13.3225 3.338C13.3025 3.334 13.2785 3.33 13.2505 3.326L12.6925 3.23C12.7485 2.838 12.8565 2.492 13.0165 2.192C13.1765 1.888 13.3785 1.634 13.6225 1.43C13.8705 1.226 14.1525 1.072 14.4685 0.968C14.7885 0.859999 15.1325 0.805999 15.5005 0.805999ZM25.4555 5.204C25.4555 5.956 25.3735 6.608 25.2095 7.16C25.0495 7.708 24.8295 8.162 24.5495 8.522C24.2695 8.882 23.9375 9.15 23.5535 9.326C23.1735 9.502 22.7655 9.59 22.3295 9.59C21.8895 9.59 21.4795 9.502 21.0995 9.326C20.7235 9.15 20.3955 8.882 20.1155 8.522C19.8355 8.162 19.6155 7.708 19.4555 7.16C19.2955 6.608 19.2155 5.956 19.2155 5.204C19.2155 4.452 19.2955 3.8 19.4555 3.248C19.6155 2.696 19.8355 2.24 20.1155 1.88C20.3955 1.516 20.7235 1.246 21.0995 1.07C21.4795 0.893999 21.8895 0.805999 22.3295 0.805999C22.7655 0.805999 23.1735 0.893999 23.5535 1.07C23.9375 1.246 24.2695 1.516 24.5495 1.88C24.8295 2.24 25.0495 2.696 25.2095 3.248C25.3735 3.8 25.4555 4.452 25.4555 5.204ZM24.3455 5.204C24.3455 4.548 24.2895 3.998 24.1775 3.554C24.0695 3.106 23.9215 2.746 23.7335 2.474C23.5495 2.202 23.3355 2.008 23.0915 1.892C22.8475 1.772 22.5935 1.712 22.3295 1.712C22.0655 1.712 21.8115 1.772 21.5675 1.892C21.3235 2.008 21.1095 2.202 20.9255 2.474C20.7415 2.746 20.5935 3.106 20.4815 3.554C20.3735 3.998 20.3195 4.548 20.3195 5.204C20.3195 5.86 20.3735 6.41 20.4815 6.854C20.5935 7.298 20.7415 7.656 20.9255 7.928C21.1095 8.2 21.3235 8.396 21.5675 8.516C21.8115 8.632 22.0655 8.69 22.3295 8.69C22.5935 8.69 22.8475 8.632 23.0915 8.516C23.3355 8.396 23.5495 8.2 23.7335 7.928C23.9215 7.656 24.0695 7.298 24.1775 6.854C24.2895 6.41 24.3455 5.86 24.3455 5.204ZM29.4224 0.805999C29.7864 0.805999 30.1264 0.859999 30.4424 0.968C30.7584 1.076 31.0304 1.234 31.2584 1.442C31.4904 1.646 31.6724 1.896 31.8044 2.192C31.9364 2.488 32.0024 2.824 32.0024 3.2C32.0024 3.52 31.9544 3.816 31.8584 4.088C31.7624 4.36 31.6324 4.622 31.4684 4.874C31.3044 5.122 31.1144 5.364 30.8984 5.6C30.6864 5.832 30.4604 6.07 30.2204 6.314L27.9584 8.63C28.1184 8.586 28.2804 8.552 28.4444 8.528C28.6084 8.5 28.7664 8.486 28.9184 8.486H31.7984C31.9144 8.486 32.0064 8.52 32.0744 8.588C32.1424 8.656 32.1764 8.744 32.1764 8.852V9.5H26.4404V9.134C26.4404 9.058 26.4544 8.98 26.4824 8.9C26.5144 8.82 26.5644 8.746 26.6324 8.678L29.3864 5.912C29.6144 5.68 29.8224 5.458 30.0104 5.246C30.1984 5.03 30.3584 4.814 30.4904 4.598C30.6264 4.382 30.7304 4.164 30.8024 3.944C30.8744 3.72 30.9104 3.482 30.9104 3.23C30.9104 2.978 30.8704 2.758 30.7904 2.57C30.7104 2.378 30.6004 2.22 30.4604 2.096C30.3204 1.972 30.1564 1.88 29.9684 1.82C29.7804 1.756 29.5784 1.724 29.3624 1.724C29.1464 1.724 28.9464 1.756 28.7624 1.82C28.5784 1.884 28.4144 1.974 28.2704 2.09C28.1304 2.202 28.0104 2.336 27.9104 2.492C27.8144 2.648 27.7464 2.82 27.7064 3.008C27.6744 3.124 27.6264 3.208 27.5624 3.26C27.4984 3.312 27.4144 3.338 27.3104 3.338C27.2904 3.338 27.2684 3.338 27.2444 3.338C27.2244 3.334 27.2004 3.33 27.1724 3.326L26.6144 3.23C26.6704 2.838 26.7784 2.492 26.9384 2.192C27.0984 1.888 27.3004 1.634 27.5444 1.43C27.7924 1.226 28.0744 1.072 28.3904 0.968C28.7104 0.859999 29.0544 0.805999 29.4224 0.805999ZM36.3833 0.805999C36.7473 0.805999 37.0873 0.859999 37.4033 0.968C37.7193 1.076 37.9913 1.234 38.2193 1.442C38.4513 1.646 38.6333 1.896 38.7653 2.192C38.8973 2.488 38.9633 2.824 38.9633 3.2C38.9633 3.52 38.9153 3.816 38.8193 4.088C38.7233 4.36 38.5933 4.622 38.4293 4.874C38.2653 5.122 38.0753 5.364 37.8593 5.6C37.6473 5.832 37.4213 6.07 37.1813 6.314L34.9193 8.63C35.0793 8.586 35.2413 8.552 35.4053 8.528C35.5693 8.5 35.7273 8.486 35.8793 8.486H38.7593C38.8753 8.486 38.9673 8.52 39.0353 8.588C39.1033 8.656 39.1373 8.744 39.1373 8.852V9.5H33.4013V9.134C33.4013 9.058 33.4153 8.98 33.4433 8.9C33.4753 8.82 33.5253 8.746 33.5933 8.678L36.3473 5.912C36.5753 5.68 36.7833 5.458 36.9713 5.246C37.1593 5.03 37.3193 4.814 37.4513 4.598C37.5873 4.382 37.6913 4.164 37.7633 3.944C37.8353 3.72 37.8713 3.482 37.8713 3.23C37.8713 2.978 37.8313 2.758 37.7513 2.57C37.6713 2.378 37.5613 2.22 37.4213 2.096C37.2813 1.972 37.1173 1.88 36.9293 1.82C36.7413 1.756 36.5393 1.724 36.3233 1.724C36.1073 1.724 35.9073 1.756 35.7233 1.82C35.5393 1.884 35.3753 1.974 35.2313 2.09C35.0913 2.202 34.9713 2.336 34.8713 2.492C34.7753 2.648 34.7073 2.82 34.6673 3.008C34.6353 3.124 34.5873 3.208 34.5233 3.26C34.4593 3.312 34.3753 3.338 34.2713 3.338C34.2513 3.338 34.2293 3.338 34.2053 3.338C34.1853 3.334 34.1613 3.33 34.1333 3.326L33.5753 3.23C33.6313 2.838 33.7393 2.492 33.8993 2.192C34.0593 1.888 34.2613 1.634 34.5053 1.43C34.7533 1.226 35.0353 1.072 35.3513 0.968C35.6713 0.859999 36.0153 0.805999 36.3833 0.805999ZM47.3326 6.392C47.3886 6.488 47.4366 6.59 47.4766 6.698C47.5206 6.802 47.5626 6.908 47.6026 7.016C47.6426 6.904 47.6846 6.798 47.7286 6.698C47.7726 6.594 47.8226 6.49 47.8786 6.386L50.7886 1.1C50.8406 1.008 50.8946 0.951999 50.9506 0.931999C51.0066 0.911999 51.0866 0.901999 51.1906 0.901999H52.0486V9.5H51.0286V3.182C51.0286 3.098 51.0306 3.008 51.0346 2.912C51.0386 2.816 51.0446 2.718 51.0526 2.618L48.1066 7.994C48.0066 8.174 47.8666 8.264 47.6866 8.264H47.5186C47.3386 8.264 47.1986 8.174 47.0986 7.994L44.0866 2.6C44.0986 2.704 44.1066 2.806 44.1106 2.906C44.1186 3.006 44.1226 3.098 44.1226 3.182V9.5H43.1026V0.901999H43.9606C44.0646 0.901999 44.1446 0.911999 44.2006 0.931999C44.2566 0.951999 44.3106 1.008 44.3626 1.1L47.3326 6.392ZM56.3797 3.326C56.7437 3.326 57.0797 3.388 57.3877 3.512C57.6957 3.632 57.9617 3.808 58.1857 4.04C58.4097 4.268 58.5837 4.552 58.7077 4.892C58.8357 5.228 58.8997 5.612 58.8997 6.044C58.8997 6.212 58.8817 6.324 58.8457 6.38C58.8097 6.436 58.7417 6.464 58.6417 6.464H54.5977C54.6057 6.848 54.6577 7.182 54.7537 7.466C54.8497 7.75 54.9817 7.988 55.1497 8.18C55.3177 8.368 55.5177 8.51 55.7497 8.606C55.9817 8.698 56.2417 8.744 56.5297 8.744C56.7977 8.744 57.0277 8.714 57.2197 8.654C57.4157 8.59 57.5837 8.522 57.7237 8.45C57.8637 8.378 57.9797 8.312 58.0717 8.252C58.1677 8.188 58.2497 8.156 58.3177 8.156C58.4057 8.156 58.4737 8.19 58.5217 8.258L58.8217 8.648C58.6897 8.808 58.5317 8.948 58.3477 9.068C58.1637 9.184 57.9657 9.28 57.7537 9.356C57.5457 9.432 57.3297 9.488 57.1057 9.524C56.8817 9.564 56.6597 9.584 56.4397 9.584C56.0197 9.584 55.6317 9.514 55.2757 9.374C54.9237 9.23 54.6177 9.022 54.3577 8.75C54.1017 8.474 53.9017 8.134 53.7577 7.73C53.6137 7.326 53.5417 6.862 53.5417 6.338C53.5417 5.914 53.6057 5.518 53.7337 5.15C53.8657 4.782 54.0537 4.464 54.2977 4.196C54.5417 3.924 54.8397 3.712 55.1917 3.56C55.5437 3.404 55.9397 3.326 56.3797 3.326ZM56.4037 4.112C55.8877 4.112 55.4817 4.262 55.1857 4.562C54.8897 4.858 54.7057 5.27 54.6337 5.798H57.9397C57.9397 5.55 57.9057 5.324 57.8377 5.12C57.7697 4.912 57.6697 4.734 57.5377 4.586C57.4057 4.434 57.2437 4.318 57.0517 4.238C56.8637 4.154 56.6477 4.112 56.4037 4.112ZM64.7306 9.5H64.2566C64.1526 9.5 64.0686 9.484 64.0046 9.452C63.9406 9.42 63.8986 9.352 63.8786 9.248L63.7586 8.684C63.5986 8.828 63.4426 8.958 63.2906 9.074C63.1386 9.186 62.9786 9.282 62.8106 9.362C62.6426 9.438 62.4626 9.496 62.2706 9.536C62.0826 9.576 61.8726 9.596 61.6406 9.596C61.4046 9.596 61.1826 9.564 60.9746 9.5C60.7706 9.432 60.5926 9.332 60.4406 9.2C60.2886 9.068 60.1666 8.902 60.0746 8.702C59.9866 8.498 59.9426 8.258 59.9426 7.982C59.9426 7.742 60.0086 7.512 60.1406 7.292C60.2726 7.068 60.4846 6.87 60.7766 6.698C61.0726 6.526 61.4586 6.386 61.9346 6.278C62.4106 6.166 62.9926 6.102 63.6806 6.086V5.612C63.6806 5.14 63.5786 4.784 63.3746 4.544C63.1746 4.3 62.8766 4.178 62.4806 4.178C62.2206 4.178 62.0006 4.212 61.8206 4.28C61.6446 4.344 61.4906 4.418 61.3586 4.502C61.2306 4.582 61.1186 4.656 61.0226 4.724C60.9306 4.788 60.8386 4.82 60.7466 4.82C60.6746 4.82 60.6106 4.802 60.5546 4.766C60.5026 4.726 60.4606 4.678 60.4286 4.622L60.2366 4.28C60.5726 3.956 60.9346 3.714 61.3226 3.554C61.7106 3.394 62.1406 3.314 62.6126 3.314C62.9526 3.314 63.2546 3.37 63.5186 3.482C63.7826 3.594 64.0046 3.75 64.1846 3.95C64.3646 4.15 64.5006 4.392 64.5926 4.676C64.6846 4.96 64.7306 5.272 64.7306 5.612V9.5ZM61.9586 8.846C62.1466 8.846 62.3186 8.828 62.4746 8.792C62.6306 8.752 62.7766 8.698 62.9126 8.63C63.0526 8.558 63.1846 8.472 63.3086 8.372C63.4366 8.272 63.5606 8.158 63.6806 8.03V6.764C63.1886 6.78 62.7706 6.82 62.4266 6.884C62.0826 6.944 61.8026 7.024 61.5866 7.124C61.3706 7.224 61.2126 7.342 61.1126 7.478C61.0166 7.614 60.9686 7.766 60.9686 7.934C60.9686 8.094 60.9946 8.232 61.0466 8.348C61.0986 8.464 61.1686 8.56 61.2566 8.636C61.3446 8.708 61.4486 8.762 61.5686 8.798C61.6886 8.83 61.8186 8.846 61.9586 8.846ZM67.5367 0.662V9.5H66.4687V0.662H67.5367ZM72.899 4.424C72.851 4.512 72.777 4.556 72.677 4.556C72.617 4.556 72.549 4.534 72.473 4.49C72.397 4.446 72.303 4.398 72.191 4.346C72.083 4.29 71.953 4.24 71.801 4.196C71.649 4.148 71.469 4.124 71.261 4.124C71.081 4.124 70.919 4.148 70.775 4.196C70.631 4.24 70.507 4.302 70.403 4.382C70.303 4.462 70.225 4.556 70.169 4.664C70.117 4.768 70.091 4.882 70.091 5.006C70.091 5.162 70.135 5.292 70.223 5.396C70.315 5.5 70.435 5.59 70.583 5.666C70.731 5.742 70.899 5.81 71.087 5.87C71.275 5.926 71.467 5.988 71.663 6.056C71.863 6.12 72.057 6.192 72.245 6.272C72.433 6.352 72.601 6.452 72.749 6.572C72.897 6.692 73.015 6.84 73.103 7.016C73.195 7.188 73.241 7.396 73.241 7.64C73.241 7.92 73.191 8.18 73.091 8.42C72.991 8.656 72.843 8.862 72.647 9.038C72.451 9.21 72.211 9.346 71.927 9.446C71.643 9.546 71.315 9.596 70.943 9.596C70.519 9.596 70.135 9.528 69.791 9.392C69.447 9.252 69.155 9.074 68.915 8.858L69.167 8.45C69.199 8.398 69.237 8.358 69.281 8.33C69.325 8.302 69.383 8.288 69.455 8.288C69.527 8.288 69.603 8.316 69.683 8.372C69.763 8.428 69.859 8.49 69.971 8.558C70.087 8.626 70.225 8.688 70.385 8.744C70.549 8.8 70.753 8.828 70.997 8.828C71.205 8.828 71.387 8.802 71.543 8.75C71.699 8.694 71.829 8.62 71.933 8.528C72.037 8.436 72.113 8.33 72.161 8.21C72.213 8.09 72.239 7.962 72.239 7.826C72.239 7.658 72.193 7.52 72.101 7.412C72.013 7.3 71.895 7.206 71.747 7.13C71.599 7.05 71.429 6.982 71.237 6.926C71.049 6.866 70.855 6.804 70.655 6.74C70.459 6.676 70.265 6.604 70.073 6.524C69.885 6.44 69.717 6.336 69.569 6.212C69.421 6.088 69.301 5.936 69.209 5.756C69.121 5.572 69.077 5.35 69.077 5.09C69.077 4.858 69.125 4.636 69.221 4.424C69.317 4.208 69.457 4.02 69.641 3.86C69.825 3.696 70.051 3.566 70.319 3.47C70.587 3.374 70.893 3.326 71.237 3.326C71.637 3.326 71.995 3.39 72.311 3.518C72.631 3.642 72.907 3.814 73.139 4.034L72.899 4.424ZM74.2741 8.84C74.2741 8.736 74.2921 8.638 74.3281 8.546C74.3681 8.454 74.4201 8.374 74.4841 8.306C74.5521 8.238 74.6321 8.184 74.7241 8.144C74.8161 8.104 74.9141 8.084 75.0181 8.084C75.1221 8.084 75.2201 8.104 75.3121 8.144C75.4041 8.184 75.4841 8.238 75.5521 8.306C75.6201 8.374 75.6721 8.454 75.7081 8.546C75.7481 8.638 75.7681 8.736 75.7681 8.84C75.7681 8.948 75.7481 9.048 75.7081 9.14C75.6721 9.228 75.6201 9.306 75.5521 9.374C75.4841 9.442 75.4041 9.494 75.3121 9.53C75.2201 9.57 75.1221 9.59 75.0181 9.59C74.9141 9.59 74.8161 9.57 74.7241 9.53C74.6321 9.494 74.5521 9.442 74.4841 9.374C74.4201 9.306 74.3681 9.228 74.3281 9.14C74.2921 9.048 74.2741 8.948 74.2741 8.84ZM86.7274 9.5H85.8274C85.7234 9.5 85.6394 9.474 85.5754 9.422C85.5114 9.37 85.4634 9.304 85.4314 9.224L84.6274 7.148H80.7694L79.9654 9.224C79.9374 9.296 79.8894 9.36 79.8214 9.416C79.7534 9.472 79.6694 9.5 79.5694 9.5H78.6694L82.1074 0.901999H83.2894L86.7274 9.5ZM81.0934 6.308H84.3034L82.9534 2.81C82.8654 2.594 82.7794 2.324 82.6954 2C82.6514 2.164 82.6074 2.316 82.5634 2.456C82.5234 2.592 82.4834 2.712 82.4434 2.816L81.0934 6.308ZM88.8296 0.662V9.5H87.7616V0.662H88.8296ZM91.8999 0.662V9.5H90.8319V0.662H91.8999ZM96.1026 9.5V3.422H96.7146C96.8306 3.422 96.9106 3.444 96.9546 3.488C96.9986 3.532 97.0286 3.608 97.0446 3.716L97.1166 4.664C97.3246 4.24 97.5806 3.91 97.8846 3.674C98.1926 3.434 98.5526 3.314 98.9646 3.314C99.1326 3.314 99.2846 3.334 99.4206 3.374C99.5566 3.41 99.6826 3.462 99.7986 3.53L99.6606 4.328C99.6326 4.428 99.5706 4.478 99.4746 4.478C99.4186 4.478 99.3326 4.46 99.2166 4.424C99.1006 4.384 98.9386 4.364 98.7306 4.364C98.3586 4.364 98.0466 4.472 97.7946 4.688C97.5466 4.904 97.3386 5.218 97.1706 5.63V9.5H96.1026ZM102.13 3.422V9.5H101.062V3.422H102.13ZM102.37 1.514C102.37 1.618 102.348 1.716 102.304 1.808C102.264 1.896 102.208 1.976 102.136 2.048C102.068 2.116 101.988 2.17 101.896 2.21C101.804 2.25 101.706 2.27 101.602 2.27C101.498 2.27 101.4 2.25 101.308 2.21C101.22 2.17 101.14 2.116 101.068 2.048C101 1.976 100.946 1.896 100.906 1.808C100.866 1.716 100.846 1.618 100.846 1.514C100.846 1.41 100.866 1.312 100.906 1.22C100.946 1.124 101 1.042 101.068 0.973999C101.14 0.902 101.22 0.846 101.308 0.805999C101.4 0.765999 101.498 0.745999 101.602 0.745999C101.706 0.745999 101.804 0.765999 101.896 0.805999C101.988 0.846 102.068 0.902 102.136 0.973999C102.208 1.042 102.264 1.124 102.304 1.22C102.348 1.312 102.37 1.41 102.37 1.514ZM106.059 3.32C106.323 3.32 106.569 3.35 106.797 3.41C107.029 3.466 107.239 3.55 107.427 3.662H109.077V4.058C109.077 4.19 108.993 4.274 108.825 4.31L108.135 4.406C108.271 4.666 108.339 4.956 108.339 5.276C108.339 5.572 108.281 5.842 108.165 6.086C108.053 6.326 107.895 6.532 107.691 6.704C107.491 6.876 107.251 7.008 106.971 7.1C106.695 7.192 106.391 7.238 106.059 7.238C105.775 7.238 105.507 7.204 105.255 7.136C105.127 7.216 105.029 7.302 104.961 7.394C104.897 7.486 104.865 7.576 104.865 7.664C104.865 7.808 104.923 7.918 105.039 7.994C105.155 8.066 105.309 8.118 105.501 8.15C105.693 8.182 105.911 8.202 106.155 8.21C106.399 8.218 106.647 8.232 106.899 8.252C107.155 8.268 107.405 8.298 107.649 8.342C107.893 8.386 108.111 8.458 108.303 8.558C108.495 8.658 108.649 8.796 108.765 8.972C108.881 9.148 108.939 9.376 108.939 9.656C108.939 9.916 108.873 10.168 108.741 10.412C108.613 10.656 108.427 10.872 108.183 11.06C107.939 11.252 107.641 11.404 107.289 11.516C106.937 11.632 106.539 11.69 106.095 11.69C105.651 11.69 105.261 11.646 104.925 11.558C104.593 11.47 104.317 11.352 104.097 11.204C103.877 11.056 103.711 10.884 103.599 10.688C103.491 10.496 103.437 10.294 103.437 10.082C103.437 9.782 103.531 9.528 103.719 9.32C103.911 9.108 104.173 8.94 104.505 8.816C104.333 8.736 104.195 8.63 104.091 8.498C103.991 8.362 103.941 8.182 103.941 7.958C103.941 7.87 103.957 7.78 103.989 7.688C104.021 7.592 104.069 7.498 104.133 7.406C104.201 7.314 104.283 7.226 104.379 7.142C104.475 7.058 104.587 6.984 104.715 6.92C104.415 6.752 104.179 6.53 104.007 6.254C103.839 5.974 103.755 5.648 103.755 5.276C103.755 4.98 103.811 4.712 103.923 4.472C104.039 4.228 104.199 4.022 104.403 3.854C104.607 3.682 104.849 3.55 105.129 3.458C105.413 3.366 105.723 3.32 106.059 3.32ZM107.955 9.83C107.955 9.678 107.913 9.556 107.829 9.464C107.745 9.372 107.631 9.302 107.487 9.254C107.343 9.202 107.177 9.164 106.989 9.14C106.801 9.116 106.603 9.1 106.395 9.092C106.187 9.08 105.975 9.068 105.759 9.056C105.543 9.044 105.337 9.022 105.141 8.99C104.913 9.098 104.727 9.23 104.583 9.386C104.443 9.542 104.373 9.728 104.373 9.944C104.373 10.08 104.407 10.206 104.475 10.322C104.547 10.442 104.655 10.544 104.799 10.628C104.943 10.716 105.123 10.784 105.339 10.832C105.559 10.884 105.817 10.91 106.113 10.91C106.401 10.91 106.659 10.884 106.887 10.832C107.115 10.78 107.307 10.706 107.463 10.61C107.623 10.514 107.745 10.4 107.829 10.268C107.913 10.136 107.955 9.99 107.955 9.83ZM106.059 6.53C106.275 6.53 106.465 6.5 106.629 6.44C106.797 6.38 106.937 6.296 107.049 6.188C107.161 6.08 107.245 5.952 107.301 5.804C107.357 5.652 107.385 5.486 107.385 5.306C107.385 4.934 107.271 4.638 107.043 4.418C106.819 4.198 106.491 4.088 106.059 4.088C105.631 4.088 105.303 4.198 105.075 4.418C104.851 4.638 104.739 4.934 104.739 5.306C104.739 5.486 104.767 5.652 104.823 5.804C104.883 5.952 104.969 6.08 105.081 6.188C105.193 6.296 105.331 6.38 105.495 6.44C105.659 6.5 105.847 6.53 106.059 6.53ZM110.142 9.5V0.662H111.21V4.238C111.47 3.962 111.758 3.742 112.074 3.578C112.39 3.41 112.754 3.326 113.166 3.326C113.498 3.326 113.79 3.382 114.042 3.494C114.298 3.602 114.51 3.758 114.678 3.962C114.85 4.162 114.98 4.404 115.068 4.688C115.156 4.972 115.2 5.286 115.2 5.63V9.5H114.132V5.63C114.132 5.17 114.026 4.814 113.814 4.562C113.606 4.306 113.286 4.178 112.854 4.178C112.538 4.178 112.242 4.254 111.966 4.406C111.694 4.558 111.442 4.764 111.21 5.024V9.5H110.142ZM118.652 9.596C118.172 9.596 117.802 9.462 117.542 9.194C117.286 8.926 117.158 8.54 117.158 8.036V4.316H116.426C116.362 4.316 116.308 4.298 116.264 4.262C116.22 4.222 116.198 4.162 116.198 4.082V3.656L117.194 3.53L117.44 1.652C117.448 1.592 117.474 1.544 117.518 1.508C117.562 1.468 117.618 1.448 117.686 1.448H118.226V3.542H119.966V4.316H118.226V7.964C118.226 8.22 118.288 8.41 118.412 8.534C118.536 8.658 118.696 8.72 118.892 8.72C119.004 8.72 119.1 8.706 119.18 8.678C119.264 8.646 119.336 8.612 119.396 8.576C119.456 8.54 119.506 8.508 119.546 8.48C119.59 8.448 119.628 8.432 119.66 8.432C119.716 8.432 119.766 8.466 119.81 8.534L120.122 9.044C119.938 9.216 119.716 9.352 119.456 9.452C119.196 9.548 118.928 9.596 118.652 9.596ZM124.766 4.424C124.718 4.512 124.644 4.556 124.544 4.556C124.484 4.556 124.416 4.534 124.34 4.49C124.264 4.446 124.17 4.398 124.058 4.346C123.95 4.29 123.82 4.24 123.668 4.196C123.516 4.148 123.336 4.124 123.128 4.124C122.948 4.124 122.786 4.148 122.642 4.196C122.498 4.24 122.374 4.302 122.27 4.382C122.17 4.462 122.092 4.556 122.036 4.664C121.984 4.768 121.958 4.882 121.958 5.006C121.958 5.162 122.002 5.292 122.09 5.396C122.182 5.5 122.302 5.59 122.45 5.666C122.598 5.742 122.766 5.81 122.954 5.87C123.142 5.926 123.334 5.988 123.53 6.056C123.73 6.12 123.924 6.192 124.112 6.272C124.3 6.352 124.468 6.452 124.616 6.572C124.764 6.692 124.882 6.84 124.97 7.016C125.062 7.188 125.108 7.396 125.108 7.64C125.108 7.92 125.058 8.18 124.958 8.42C124.858 8.656 124.71 8.862 124.514 9.038C124.318 9.21 124.078 9.346 123.794 9.446C123.51 9.546 123.182 9.596 122.81 9.596C122.386 9.596 122.002 9.528 121.658 9.392C121.314 9.252 121.022 9.074 120.782 8.858L121.034 8.45C121.066 8.398 121.104 8.358 121.148 8.33C121.192 8.302 121.25 8.288 121.322 8.288C121.394 8.288 121.47 8.316 121.55 8.372C121.63 8.428 121.726 8.49 121.838 8.558C121.954 8.626 122.092 8.688 122.252 8.744C122.416 8.8 122.62 8.828 122.864 8.828C123.072 8.828 123.254 8.802 123.41 8.75C123.566 8.694 123.696 8.62 123.8 8.528C123.904 8.436 123.98 8.33 124.028 8.21C124.08 8.09 124.106 7.962 124.106 7.826C124.106 7.658 124.06 7.52 123.968 7.412C123.88 7.3 123.762 7.206 123.614 7.13C123.466 7.05 123.296 6.982 123.104 6.926C122.916 6.866 122.722 6.804 122.522 6.74C122.326 6.676 122.132 6.604 121.94 6.524C121.752 6.44 121.584 6.336 121.436 6.212C121.288 6.088 121.168 5.936 121.076 5.756C120.988 5.572 120.944 5.35 120.944 5.09C120.944 4.858 120.992 4.636 121.088 4.424C121.184 4.208 121.324 4.02 121.508 3.86C121.692 3.696 121.918 3.566 122.186 3.47C122.454 3.374 122.76 3.326 123.104 3.326C123.504 3.326 123.862 3.39 124.178 3.518C124.498 3.642 124.774 3.814 125.006 4.034L124.766 4.424ZM128.81 9.5V3.422H129.422C129.538 3.422 129.618 3.444 129.662 3.488C129.706 3.532 129.736 3.608 129.752 3.716L129.824 4.664C130.032 4.24 130.288 3.91 130.592 3.674C130.9 3.434 131.26 3.314 131.672 3.314C131.84 3.314 131.992 3.334 132.128 3.374C132.264 3.41 132.39 3.462 132.506 3.53L132.368 4.328C132.34 4.428 132.278 4.478 132.182 4.478C132.126 4.478 132.04 4.46 131.924 4.424C131.808 4.384 131.646 4.364 131.438 4.364C131.066 4.364 130.754 4.472 130.502 4.688C130.254 4.904 130.046 5.218 129.878 5.63V9.5H128.81ZM136.055 3.326C136.419 3.326 136.755 3.388 137.063 3.512C137.371 3.632 137.637 3.808 137.861 4.04C138.085 4.268 138.259 4.552 138.383 4.892C138.511 5.228 138.575 5.612 138.575 6.044C138.575 6.212 138.557 6.324 138.521 6.38C138.485 6.436 138.417 6.464 138.317 6.464H134.273C134.281 6.848 134.333 7.182 134.429 7.466C134.525 7.75 134.657 7.988 134.825 8.18C134.993 8.368 135.193 8.51 135.425 8.606C135.657 8.698 135.917 8.744 136.205 8.744C136.473 8.744 136.703 8.714 136.895 8.654C137.091 8.59 137.259 8.522 137.399 8.45C137.539 8.378 137.655 8.312 137.747 8.252C137.843 8.188 137.925 8.156 137.993 8.156C138.081 8.156 138.149 8.19 138.197 8.258L138.497 8.648C138.365 8.808 138.207 8.948 138.023 9.068C137.839 9.184 137.641 9.28 137.429 9.356C137.221 9.432 137.005 9.488 136.781 9.524C136.557 9.564 136.335 9.584 136.115 9.584C135.695 9.584 135.307 9.514 134.951 9.374C134.599 9.23 134.293 9.022 134.033 8.75C133.777 8.474 133.577 8.134 133.433 7.73C133.289 7.326 133.217 6.862 133.217 6.338C133.217 5.914 133.281 5.518 133.409 5.15C133.541 4.782 133.729 4.464 133.973 4.196C134.217 3.924 134.515 3.712 134.867 3.56C135.219 3.404 135.615 3.326 136.055 3.326ZM136.079 4.112C135.563 4.112 135.157 4.262 134.861 4.562C134.565 4.858 134.381 5.27 134.309 5.798H137.615C137.615 5.55 137.581 5.324 137.513 5.12C137.445 4.912 137.345 4.734 137.213 4.586C137.081 4.434 136.919 4.318 136.727 4.238C136.539 4.154 136.323 4.112 136.079 4.112ZM143.422 4.424C143.374 4.512 143.3 4.556 143.2 4.556C143.14 4.556 143.072 4.534 142.996 4.49C142.92 4.446 142.826 4.398 142.714 4.346C142.606 4.29 142.476 4.24 142.324 4.196C142.172 4.148 141.992 4.124 141.784 4.124C141.604 4.124 141.442 4.148 141.298 4.196C141.154 4.24 141.03 4.302 140.926 4.382C140.826 4.462 140.748 4.556 140.692 4.664C140.64 4.768 140.614 4.882 140.614 5.006C140.614 5.162 140.658 5.292 140.746 5.396C140.838 5.5 140.958 5.59 141.106 5.666C141.254 5.742 141.422 5.81 141.61 5.87C141.798 5.926 141.99 5.988 142.186 6.056C142.386 6.12 142.58 6.192 142.768 6.272C142.956 6.352 143.124 6.452 143.272 6.572C143.42 6.692 143.538 6.84 143.626 7.016C143.718 7.188 143.764 7.396 143.764 7.64C143.764 7.92 143.714 8.18 143.614 8.42C143.514 8.656 143.366 8.862 143.17 9.038C142.974 9.21 142.734 9.346 142.45 9.446C142.166 9.546 141.838 9.596 141.466 9.596C141.042 9.596 140.658 9.528 140.314 9.392C139.97 9.252 139.678 9.074 139.438 8.858L139.69 8.45C139.722 8.398 139.76 8.358 139.804 8.33C139.848 8.302 139.906 8.288 139.978 8.288C140.05 8.288 140.126 8.316 140.206 8.372C140.286 8.428 140.382 8.49 140.494 8.558C140.61 8.626 140.748 8.688 140.908 8.744C141.072 8.8 141.276 8.828 141.52 8.828C141.728 8.828 141.91 8.802 142.066 8.75C142.222 8.694 142.352 8.62 142.456 8.528C142.56 8.436 142.636 8.33 142.684 8.21C142.736 8.09 142.762 7.962 142.762 7.826C142.762 7.658 142.716 7.52 142.624 7.412C142.536 7.3 142.418 7.206 142.27 7.13C142.122 7.05 141.952 6.982 141.76 6.926C141.572 6.866 141.378 6.804 141.178 6.74C140.982 6.676 140.788 6.604 140.596 6.524C140.408 6.44 140.24 6.336 140.092 6.212C139.944 6.088 139.824 5.936 139.732 5.756C139.644 5.572 139.6 5.35 139.6 5.09C139.6 4.858 139.648 4.636 139.744 4.424C139.84 4.208 139.98 4.02 140.164 3.86C140.348 3.696 140.574 3.566 140.842 3.47C141.11 3.374 141.416 3.326 141.76 3.326C142.16 3.326 142.518 3.39 142.834 3.518C143.154 3.642 143.43 3.814 143.662 4.034L143.422 4.424ZM147.552 3.326C147.916 3.326 148.252 3.388 148.56 3.512C148.868 3.632 149.134 3.808 149.358 4.04C149.582 4.268 149.756 4.552 149.88 4.892C150.008 5.228 150.072 5.612 150.072 6.044C150.072 6.212 150.054 6.324 150.018 6.38C149.982 6.436 149.914 6.464 149.814 6.464H145.77C145.778 6.848 145.83 7.182 145.926 7.466C146.022 7.75 146.154 7.988 146.322 8.18C146.49 8.368 146.69 8.51 146.922 8.606C147.154 8.698 147.414 8.744 147.702 8.744C147.97 8.744 148.2 8.714 148.392 8.654C148.588 8.59 148.756 8.522 148.896 8.45C149.036 8.378 149.152 8.312 149.244 8.252C149.34 8.188 149.422 8.156 149.49 8.156C149.578 8.156 149.646 8.19 149.694 8.258L149.994 8.648C149.862 8.808 149.704 8.948 149.52 9.068C149.336 9.184 149.138 9.28 148.926 9.356C148.718 9.432 148.502 9.488 148.278 9.524C148.054 9.564 147.832 9.584 147.612 9.584C147.192 9.584 146.804 9.514 146.448 9.374C146.096 9.23 145.79 9.022 145.53 8.75C145.274 8.474 145.074 8.134 144.93 7.73C144.786 7.326 144.714 6.862 144.714 6.338C144.714 5.914 144.778 5.518 144.906 5.15C145.038 4.782 145.226 4.464 145.47 4.196C145.714 3.924 146.012 3.712 146.364 3.56C146.716 3.404 147.112 3.326 147.552 3.326ZM147.576 4.112C147.06 4.112 146.654 4.262 146.358 4.562C146.062 4.858 145.878 5.27 145.806 5.798H149.112C149.112 5.55 149.078 5.324 149.01 5.12C148.942 4.912 148.842 4.734 148.71 4.586C148.578 4.434 148.416 4.318 148.224 4.238C148.036 4.154 147.82 4.112 147.576 4.112ZM151.439 9.5V3.422H152.051C152.167 3.422 152.247 3.444 152.291 3.488C152.335 3.532 152.365 3.608 152.381 3.716L152.453 4.664C152.661 4.24 152.917 3.91 153.221 3.674C153.529 3.434 153.889 3.314 154.301 3.314C154.469 3.314 154.621 3.334 154.757 3.374C154.893 3.41 155.019 3.462 155.135 3.53L154.997 4.328C154.969 4.428 154.907 4.478 154.811 4.478C154.755 4.478 154.669 4.46 154.553 4.424C154.437 4.384 154.275 4.364 154.067 4.364C153.695 4.364 153.383 4.472 153.131 4.688C152.883 4.904 152.675 5.218 152.507 5.63V9.5H151.439ZM155.51 3.422H156.386C156.47 3.422 156.54 3.444 156.596 3.488C156.652 3.532 156.692 3.584 156.716 3.644L158.258 7.556C158.314 7.7 158.358 7.844 158.39 7.988C158.422 8.132 158.452 8.274 158.48 8.414C158.512 8.274 158.546 8.132 158.582 7.988C158.618 7.844 158.664 7.7 158.72 7.556L160.28 3.644C160.304 3.58 160.342 3.528 160.394 3.488C160.45 3.444 160.518 3.422 160.598 3.422H161.432L158.954 9.5H157.988L155.51 3.422ZM164.673 3.326C165.037 3.326 165.373 3.388 165.681 3.512C165.989 3.632 166.255 3.808 166.479 4.04C166.703 4.268 166.877 4.552 167.001 4.892C167.129 5.228 167.193 5.612 167.193 6.044C167.193 6.212 167.175 6.324 167.139 6.38C167.103 6.436 167.035 6.464 166.935 6.464H162.891C162.899 6.848 162.951 7.182 163.047 7.466C163.143 7.75 163.275 7.988 163.443 8.18C163.611 8.368 163.811 8.51 164.043 8.606C164.275 8.698 164.535 8.744 164.823 8.744C165.091 8.744 165.321 8.714 165.513 8.654C165.709 8.59 165.877 8.522 166.017 8.45C166.157 8.378 166.273 8.312 166.365 8.252C166.461 8.188 166.543 8.156 166.611 8.156C166.699 8.156 166.767 8.19 166.815 8.258L167.115 8.648C166.983 8.808 166.825 8.948 166.641 9.068C166.457 9.184 166.259 9.28 166.047 9.356C165.839 9.432 165.623 9.488 165.399 9.524C165.175 9.564 164.953 9.584 164.733 9.584C164.313 9.584 163.925 9.514 163.569 9.374C163.217 9.23 162.911 9.022 162.651 8.75C162.395 8.474 162.195 8.134 162.051 7.73C161.907 7.326 161.835 6.862 161.835 6.338C161.835 5.914 161.899 5.518 162.027 5.15C162.159 4.782 162.347 4.464 162.591 4.196C162.835 3.924 163.133 3.712 163.485 3.56C163.837 3.404 164.233 3.326 164.673 3.326ZM164.697 4.112C164.181 4.112 163.775 4.262 163.479 4.562C163.183 4.858 162.999 5.27 162.927 5.798H166.233C166.233 5.55 166.199 5.324 166.131 5.12C166.063 4.912 165.963 4.734 165.831 4.586C165.699 4.434 165.537 4.318 165.345 4.238C165.157 4.154 164.941 4.112 164.697 4.112ZM172.838 9.5C172.686 9.5 172.59 9.426 172.55 9.278L172.454 8.54C172.194 8.856 171.896 9.11 171.56 9.302C171.228 9.49 170.846 9.584 170.414 9.584C170.066 9.584 169.75 9.518 169.466 9.386C169.182 9.25 168.94 9.052 168.74 8.792C168.54 8.532 168.386 8.208 168.278 7.82C168.17 7.432 168.116 6.986 168.116 6.482C168.116 6.034 168.176 5.618 168.296 5.234C168.416 4.846 168.588 4.51 168.812 4.226C169.04 3.942 169.316 3.72 169.64 3.56C169.964 3.396 170.332 3.314 170.744 3.314C171.116 3.314 171.434 3.378 171.698 3.506C171.962 3.63 172.198 3.806 172.406 4.034V0.662H173.474V9.5H172.838ZM170.768 8.72C171.116 8.72 171.42 8.64 171.68 8.48C171.944 8.32 172.186 8.094 172.406 7.802V4.862C172.21 4.598 171.994 4.414 171.758 4.31C171.526 4.202 171.268 4.148 170.984 4.148C170.416 4.148 169.98 4.35 169.676 4.754C169.372 5.158 169.22 5.734 169.22 6.482C169.22 6.878 169.254 7.218 169.322 7.502C169.39 7.782 169.49 8.014 169.622 8.198C169.754 8.378 169.916 8.51 170.108 8.594C170.3 8.678 170.52 8.72 170.768 8.72ZM174.915 8.84C174.915 8.736 174.933 8.638 174.969 8.546C175.009 8.454 175.061 8.374 175.125 8.306C175.193 8.238 175.273 8.184 175.365 8.144C175.457 8.104 175.555 8.084 175.659 8.084C175.763 8.084 175.861 8.104 175.953 8.144C176.045 8.184 176.125 8.238 176.193 8.306C176.261 8.374 176.313 8.454 176.349 8.546C176.389 8.638 176.409 8.736 176.409 8.84C176.409 8.948 176.389 9.048 176.349 9.14C176.313 9.228 176.261 9.306 176.193 9.374C176.125 9.442 176.045 9.494 175.953 9.53C175.861 9.57 175.763 9.59 175.659 9.59C175.555 9.59 175.457 9.57 175.365 9.53C175.273 9.494 175.193 9.442 175.125 9.374C175.061 9.306 175.009 9.228 174.969 9.14C174.933 9.048 174.915 8.948 174.915 8.84Z" fill="#333333"/>
</svg>
